<svg xmlns="http://www.w3.org/2000/svg" width="60" height="45" viewBox="0 0 60 45">
  <path id="Icon_awesome-map-marked-alt" data-name="Icon awesome-map-marked-alt" d="M30,0C22.751,0,16.875,4.958,16.875,11.074c0,4.945,8.578,13.957,11.865,17.228a1.847,1.847,0,0,0,2.521,0c3.286-3.271,11.865-12.284,11.865-17.228C43.125,4.958,37.249,0,30,0Zm0,14.766c-2.417,0-4.375-1.652-4.375-3.691S27.583,7.383,30,7.383s4.375,1.652,4.375,3.691S32.417,14.766,30,14.766ZM2.1,18.98A2.861,2.861,0,0,0,0,21.591v22A1.656,1.656,0,0,0,2.285,44.9l14.381-5.523V18.889a24.858,24.858,0,0,1-2.214-4.08ZM30,31.612a5.4,5.4,0,0,1-3.8-1.491c-2.048-2.039-4.226-4.361-6.2-6.743v16L40,45V23.379c-1.971,2.381-4.148,4.7-6.2,6.743A5.4,5.4,0,0,1,30,31.612ZM57.715,14.164,43.333,19.688V45L57.9,40.083A2.86,2.86,0,0,0,60,37.471v-22A1.656,1.656,0,0,0,57.715,14.164Z" fill="#32dbc6"/>
</svg>
